<svg width="24" height="25" viewBox="0 0 24 25" fill="none" xmlns="http://www.w3.org/2000/svg">
<g clip-path="url(#clip0_2006_36322)">
<path d="M16.773 0.93828C16.722 0.88128 14.8845 0.96078 13.2855 2.69628C11.6865 4.43028 11.9325 6.41928 11.9685 6.47028C12.0045 6.52128 14.2485 6.60078 15.681 4.58328C17.1135 2.56578 16.824 0.99678 16.773 0.93828ZM21.744 18.5378C21.672 18.3938 18.2565 16.6868 18.5745 13.4048C18.8925 10.1213 21.087 9.22128 21.1215 9.12378C21.156 9.02628 20.226 7.93878 19.2405 7.38828C18.5169 7.00016 17.7161 6.77779 16.896 6.73728C16.734 6.73278 16.1715 6.59478 15.015 6.91128C14.253 7.11978 12.5355 7.79478 12.063 7.82178C11.589 7.84878 10.179 7.03878 8.6625 6.82428C7.692 6.63678 6.663 7.02078 5.9265 7.31628C5.1915 7.61028 3.7935 8.44728 2.8155 10.6718C1.8375 12.8948 2.349 16.4168 2.715 17.5118C3.081 18.6053 3.6525 20.3978 4.6245 21.7058C5.4885 23.1818 6.6345 24.2063 7.113 24.5543C7.5915 24.9023 8.9415 25.1333 9.8775 24.6548C10.6305 24.1928 11.9895 23.9273 12.5265 23.9468C13.062 23.9663 14.118 24.1778 15.1995 24.7553C16.056 25.0508 16.866 24.9278 17.6775 24.5978C18.489 24.2663 19.6635 23.0093 21.0345 20.4608C21.555 19.2758 21.792 18.6353 21.744 18.5378Z" fill="black"/>
<path d="M16.773 0.93828C16.722 0.88128 14.8845 0.96078 13.2855 2.69628C11.6865 4.43028 11.9325 6.41928 11.9685 6.47028C12.0045 6.52128 14.2485 6.60078 15.681 4.58328C17.1135 2.56578 16.824 0.99678 16.773 0.93828ZM21.744 18.5378C21.672 18.3938 18.2565 16.6868 18.5745 13.4048C18.8925 10.1213 21.087 9.22128 21.1215 9.12378C21.156 9.02628 20.226 7.93878 19.2405 7.38828C18.5169 7.00016 17.7161 6.77779 16.896 6.73728C16.734 6.73278 16.1715 6.59478 15.015 6.91128C14.253 7.11978 12.5355 7.79478 12.063 7.82178C11.589 7.84878 10.179 7.03878 8.6625 6.82428C7.692 6.63678 6.663 7.02078 5.9265 7.31628C5.1915 7.61028 3.7935 8.44728 2.8155 10.6718C1.8375 12.8948 2.349 16.4168 2.715 17.5118C3.081 18.6053 3.6525 20.3978 4.6245 21.7058C5.4885 23.1818 6.6345 24.2063 7.113 24.5543C7.5915 24.9023 8.9415 25.1333 9.8775 24.6548C10.6305 24.1928 11.9895 23.9273 12.5265 23.9468C13.062 23.9663 14.118 24.1778 15.1995 24.7553C16.056 25.0508 16.866 24.9278 17.6775 24.5978C18.489 24.2663 19.6635 23.0093 21.0345 20.4608C21.555 19.2758 21.792 18.6353 21.744 18.5378Z" fill="black"/>
</g>
<defs>
<clipPath id="clip0_2006_36322">
<rect width="24" height="24" fill="white" transform="translate(0 0.92627)"/>
</clipPath>
</defs>
</svg>
