<svg width="28" height="28" viewBox="0 0 28 28" fill="none" xmlns="http://www.w3.org/2000/svg">
<path d="M23.3333 14.3203C23.3333 14.7633 23.0041 15.1294 22.577 15.1873L22.4583 15.1953L4.95825 15.1953C4.475 15.1953 4.08325 14.8036 4.08325 14.3203C4.08325 13.8773 4.41243 13.5112 4.83952 13.4533L4.95825 13.4453L22.4583 13.4453C22.9415 13.4453 23.3333 13.8371 23.3333 14.3203Z" fill="#212121"/>
<path d="M12.6337 20.7286C12.9762 21.0696 12.9774 21.6236 12.6364 21.9661C12.3264 22.2774 11.8404 22.3067 11.4973 22.0532L11.399 21.9687L4.34064 14.9407C4.0284 14.6298 3.99999 14.142 4.25544 13.7989L4.34059 13.7007L11.3989 6.67151C11.7413 6.33051 12.2954 6.33165 12.6364 6.67407C12.9464 6.98535 12.9736 7.47152 12.7187 7.81354L12.6338 7.9115L6.19842 14.321L12.6337 20.7286Z" fill="#212121"/>
</svg>
