<svg width="25" height="25" viewBox="0 0 25 25" fill="none" xmlns="http://www.w3.org/2000/svg">
<g clip-path="url(#clip0_1774_3669)">
<path d="M24.0078 13.1509C24.0078 12.1677 23.9295 11.4501 23.7598 10.7061H12.7295V15.144H19.2041C19.0736 16.2469 18.3687 17.9079 16.8022 19.024L16.7802 19.1726L20.2678 21.9228L20.5095 21.9473C22.7285 19.8611 24.0078 16.7917 24.0078 13.1509Z" fill="#4285F4"/>
<path d="M12.7296 24.8436C15.9016 24.8436 18.5645 23.7806 20.5095 21.9469L16.8023 19.0236C15.8102 19.7278 14.4787 20.2195 12.7296 20.2195C9.6228 20.2195 6.98598 18.1334 6.04603 15.25L5.90825 15.2619L2.2818 18.1187L2.23438 18.2529C4.1663 22.1594 8.13462 24.8436 12.7296 24.8436Z" fill="#34A853"/>
<path d="M6.04597 15.2501C5.79795 14.506 5.65442 13.7087 5.65442 12.8849C5.65442 12.061 5.79795 11.2638 6.03292 10.5197L6.02635 10.3612L2.35446 7.4585L2.23432 7.51666C1.43808 9.13776 0.981201 10.9582 0.981201 12.8849C0.981201 14.8116 1.43808 16.6319 2.23432 18.253L6.04597 15.2501Z" fill="#FBBC05"/>
<path d="M12.7295 5.5503C14.9356 5.5503 16.4237 6.52028 17.2722 7.33088L20.5878 4.03555C18.5515 2.10886 15.9015 0.92627 12.7295 0.92627C8.13462 0.92627 4.1663 3.61033 2.23438 7.51683L6.03297 10.5199C6.98597 7.63647 9.62279 5.5503 12.7295 5.5503Z" fill="#EB4335"/>
</g>
<defs>
<clipPath id="clip0_1774_3669">
<rect width="23.04" height="24" fill="white" transform="translate(0.97998 0.92627)"/>
</clipPath>
</defs>
</svg>
