<svg width="21" height="20" viewBox="0 0 21 20" fill="none" xmlns="http://www.w3.org/2000/svg">
<path fill-rule="evenodd" clip-rule="evenodd" d="M8.66941 12.7103C9.18981 13.0631 9.82404 13.2764 10.4989 13.2764C12.2878 13.2764 13.7433 11.8078 13.7433 10.0029C13.7433 9.32196 13.5318 8.68203 13.1822 8.15696L12.2959 9.05122C12.4423 9.33017 12.5236 9.65834 12.5236 10.0029C12.5236 11.1269 11.6129 12.0458 10.4989 12.0458C10.1574 12.0458 9.83217 11.9637 9.55571 11.8161L8.66941 12.7103ZM15.8574 5.45777C17.0364 6.54073 18.0365 8.00108 18.7846 9.75679C18.8496 9.91267 18.8496 10.0932 18.7846 10.2408C17.0445 14.3265 13.9465 16.7714 10.4989 16.7714H10.4908C8.92148 16.7714 7.41722 16.2545 6.09184 15.3111L4.51439 16.9027C4.39243 17.0257 4.23794 17.0832 4.08344 17.0832C3.92895 17.0832 3.76633 17.0257 3.65249 16.9027C3.44921 16.6976 3.41669 16.3694 3.57931 16.1315L3.60371 16.0987L15.6297 3.9646C15.6459 3.94819 15.6622 3.93178 15.6703 3.91537C15.6866 3.89896 15.7029 3.88255 15.711 3.86614L16.4753 3.09495C16.7193 2.85702 17.1014 2.85702 17.3372 3.09495C17.5812 3.33287 17.5812 3.72667 17.3372 3.9646L15.8574 5.45777ZM7.24866 10.0061C7.24866 10.2194 7.27305 10.4327 7.30558 10.6296L4.29705 13.6652C3.48393 12.7135 2.77652 11.5649 2.21547 10.244C2.15042 10.0964 2.15042 9.91587 2.21547 9.75999C3.95554 5.67428 7.05351 3.23762 10.493 3.23762H10.5011C11.6639 3.23762 12.7941 3.51656 13.8349 4.04163L11.1191 6.78185C10.9239 6.74903 10.7125 6.72442 10.5011 6.72442C8.70413 6.72442 7.24866 8.19298 7.24866 10.0061Z" fill="#9E9E9E"/>
</svg>
