<svg width="16" height="18" viewBox="0 0 16 18" fill="none" xmlns="http://www.w3.org/2000/svg">
<path fill-rule="evenodd" clip-rule="evenodd" d="M12.6023 5.16318V6.44096C14.0376 6.88897 15.0834 8.18828 15.0834 9.74017V13.8543C15.0834 15.7755 13.4906 17.3332 11.5269 17.3332H4.47408C2.50955 17.3332 0.916748 15.7755 0.916748 13.8543V9.74017C0.916748 8.18828 1.96337 6.88897 3.39782 6.44096V5.16318C3.40629 2.67883 5.46397 0.666504 7.98738 0.666504C10.5447 0.666504 12.6023 2.67883 12.6023 5.16318ZM8.00432 2.11571C9.72328 2.11571 11.1205 3.4821 11.1205 5.16317V6.26126H4.87969V5.14661C4.88816 3.47382 6.28535 2.11571 8.00432 2.11571ZM8.74101 12.7123C8.74101 13.1181 8.41077 13.441 7.99585 13.441C7.58939 13.441 7.25915 13.1181 7.25915 12.7123V10.8739C7.25915 10.4764 7.58939 10.1534 7.99585 10.1534C8.41077 10.1534 8.74101 10.4764 8.74101 10.8739V12.7123Z" fill="#9E9E9E"/>
</svg>
