<svg width="21" height="20" viewBox="0 0 21 20" fill="none" xmlns="http://www.w3.org/2000/svg">
<path d="M10.5 9.16667C11.1593 9.16667 11.8038 8.97117 12.3519 8.6049C12.9001 8.23863 13.3273 7.71803 13.5796 7.10895C13.8319 6.49986 13.8979 5.82964 13.7693 5.18303C13.6407 4.53643 13.3232 3.94249 12.857 3.47631C12.3909 3.01014 11.7969 2.69267 11.1503 2.56405C10.5037 2.43543 9.8335 2.50144 9.22441 2.75374C8.61532 3.00603 8.09473 3.43327 7.72846 3.98143C7.36218 4.5296 7.16669 5.17406 7.16669 5.83334C7.16669 6.71739 7.51788 7.56524 8.143 8.19036C8.76812 8.81548 9.61597 9.16667 10.5 9.16667ZM10.5 4.16667C10.8297 4.16667 11.1519 4.26442 11.426 4.44755C11.7001 4.63069 11.9137 4.89099 12.0398 5.19553C12.166 5.50007 12.199 5.83518 12.1347 6.15849C12.0704 6.48179 11.9116 6.77876 11.6785 7.01185C11.4454 7.24493 11.1485 7.40367 10.8252 7.46798C10.5019 7.53229 10.1668 7.49928 9.86222 7.37313C9.55767 7.24699 9.29737 7.03337 9.11424 6.75929C8.9311 6.4852 8.83335 6.16297 8.83335 5.83334C8.83335 5.39131 9.00895 4.96738 9.32151 4.65482C9.63407 4.34226 10.058 4.16667 10.5 4.16667Z" fill="#9E9E9E"/>
<path d="M10.5001 10.8335C8.95299 10.8335 7.46925 11.4481 6.37529 12.542C5.28133 13.636 4.66675 15.1197 4.66675 16.6668C4.66675 16.8878 4.75455 17.0998 4.91083 17.2561C5.06711 17.4124 5.27907 17.5002 5.50008 17.5002C5.7211 17.5002 5.93306 17.4124 6.08934 17.2561C6.24562 17.0998 6.33341 16.8878 6.33341 16.6668C6.33341 15.5618 6.7724 14.502 7.5538 13.7206C8.3352 12.9391 9.39501 12.5002 10.5001 12.5002C11.6052 12.5002 12.665 12.9391 13.4464 13.7206C14.2278 14.502 14.6667 15.5618 14.6667 16.6668C14.6667 16.8878 14.7545 17.0998 14.9108 17.2561C15.0671 17.4124 15.2791 17.5002 15.5001 17.5002C15.7211 17.5002 15.9331 17.4124 16.0893 17.2561C16.2456 17.0998 16.3334 16.8878 16.3334 16.6668C16.3334 15.1197 15.7188 13.636 14.6249 12.542C13.5309 11.4481 12.0472 10.8335 10.5001 10.8335Z" fill="#9E9E9E"/>
</svg>
